<?xml version="1.0" encoding="utf-8"?>
<!-- Generator: Adobe Illustrator 24.0.3, SVG Export Plug-In . SVG Version: 6.00 Build 0)  -->
<svg version="1.1" id="Layer_1" xmlns="http://www.w3.org/2000/svg" xmlns:xlink="http://www.w3.org/1999/xlink" x="0px" y="0px"
	 viewBox="0 0 152 40" style="enable-background:new 0 0 152 40;" xml:space="preserve">
<style type="text/css">
	.st0{fill:#2797D4;}
	.st1{fill:#314B76;}
</style>
<title>Artboard</title>
<desc>Created with Sketch.</desc>
<g id="Artboard">
	<g id="ebanx-logo" transform="translate(0.000000, 4.000000)">
		<path id="Shape" class="st0" d="M6,3l12.1,9.6L27,3.3C27,3.2,27,3.2,27,3.1C27,3,26.9,3,26.8,3L6,3z"/>
		<path id="Shape_1_" class="st0" d="M6,29.1l12.1-9.6l8.8,9.2c0.1,0.1,0.1,0.1,0,0.2c0,0.1-0.1,0.1-0.2,0.1L6,29.1z"/>
		<path id="Shape_2_" class="st1" d="M6.4,3l16.2,12.8c0.1,0,0.1,0.1,0.1,0.2c0,0.1,0,0.1-0.1,0.2L6.4,29c-0.1,0.1-0.2,0.1-0.2,0
			C6.1,29,6,29,6,28.9V3.2C6,3.1,6.1,3,6.1,3C6.2,2.9,6.3,3,6.4,3z"/>
		<path id="Shape_3_" class="st1" d="M71.6,21.5c0,4.5-3.6,7.6-8.1,7.6H52.6c-0.1,0-0.2-0.1-0.2-0.2V3.2c0-0.1,0-0.1,0.1-0.1
			c0,0,0.1-0.1,0.1-0.1h10.1c4.4,0,8,3,8,7.4c0,2.2-0.9,4-2.5,5.2C70.3,16.7,71.6,18.8,71.6,21.5z M57.5,8v5.4
			c0,0.1,0.1,0.2,0.2,0.2h4.9c1.7,0,2.9-1.4,2.8-3.2c-0.1-1.5-1.4-2.6-2.9-2.6h-4.9c0,0-0.1,0-0.1,0.1C57.6,7.9,57.5,7.9,57.5,8z
			 M66.5,20.9c-0.1-1.6-1.5-2.8-3.1-2.8h-5.9v6.2l5.9,0C65.3,24.3,66.6,22.8,66.5,20.9L66.5,20.9z"/>
		<path id="Shape_4_" class="st1" d="M90.7,24.4H80.5c-0.1,0-0.2,0.1-0.2,0.1L78.9,29c0,0.1-0.1,0.1-0.2,0.1h-5.1
			c-0.1,0-0.1,0-0.2-0.1c0-0.1,0-0.1,0-0.2l9-25.7C82.4,3,82.5,3,82.6,3h6.1c0.1,0,0.2,0.1,0.2,0.1l9,25.7c0,0.1,0,0.1,0,0.2
			c0,0.1-0.1,0.1-0.2,0.1h-5.2c-0.1,0-0.2-0.1-0.2-0.1l-1.5-4.4C90.8,24.4,90.7,24.4,90.7,24.4z M89.1,19.3l-3.3-9.9
			c0-0.1-0.1-0.1-0.2-0.1c-0.1,0-0.2,0.1-0.2,0.1l-3.3,9.9c0,0.1,0,0.1,0,0.2c0,0.1,0.1,0.1,0.2,0.1h6.6c0.1,0,0.1,0,0.2-0.1
			S89.1,19.4,89.1,19.3z"/>
		<path id="Shape_5_" class="st1" d="M120.6,3.2v25.7c0,0.1,0,0.1-0.1,0.1c0,0-0.1,0.1-0.1,0.1h-3.6c-0.1,0-0.1,0-0.2-0.1
			l-11.1-15.9v15.8c0,0.1-0.1,0.2-0.2,0.2h-4.7c-0.1,0-0.2-0.1-0.2-0.2V3.2c0-0.1,0-0.1,0.1-0.2c0,0,0.1-0.1,0.1-0.1h3.6
			c0.1,0,0.1,0,0.2,0.1l11.1,15.8V3.2c0-0.1,0-0.1,0.1-0.2c0,0,0.1-0.1,0.2-0.1h4.7c0.1,0,0.1,0,0.1,0.1
			C120.6,3.1,120.6,3.1,120.6,3.2z"/>
		<path id="Shape_6_" class="st1" d="M140.1,29l-4.9-8.1c0-0.1-0.1-0.1-0.2-0.1c-0.1,0-0.2,0-0.2,0.1l-4.9,8.1
			c0,0.1-0.1,0.1-0.2,0.1h-5.4c-0.1,0-0.2,0-0.2-0.1s0-0.2,0-0.2l7.9-13c0-0.1,0-0.2,0-0.2l-7.4-12.3c0-0.1,0-0.2,0-0.2
			c0-0.1,0.1-0.1,0.2-0.1h5.4c0.1,0,0.2,0,0.2,0.1l4.5,7.4c0,0.1,0.1,0.1,0.2,0.1c0.1,0,0.2,0,0.2-0.1l4.5-7.4
			c0-0.1,0.1-0.1,0.2-0.1h5.4c0.1,0,0.2,0,0.2,0.1s0,0.2,0,0.2l-7.4,12.2c0,0.1,0,0.2,0,0.2l7.9,13c0,0.1,0,0.2,0,0.2
			c0,0.1-0.1,0.1-0.2,0.1h-5.4C140.3,29.1,140.2,29,140.1,29z"/>
		<path id="Shape_7_" class="st1" d="M39.6,24.1c-0.7-0.1-1.2-0.7-1.2-1.4v-4.3c0-0.1,0-0.1,0.1-0.1c0,0,0.1-0.1,0.1-0.1h9.8
			c0.1,0,0.2-0.1,0.2-0.2v-4.4c0-0.1-0.1-0.2-0.2-0.2h-9.8c-0.1,0-0.1,0-0.1-0.1c0,0-0.1-0.1-0.1-0.1V8.1c0-0.1,0.1-0.2,0.2-0.2
			h10.7c0.1,0,0.2-0.1,0.2-0.2V3.2c0-0.1,0-0.1-0.1-0.1c0,0-0.1-0.1-0.1-0.1h-16c-0.1,0-0.2,0.1-0.2,0.2v21c0,2.7,2.2,4.9,5,4.9
			h11.6v-4.9H39.6z"/>
	</g>
</g>
</svg>
